<mxfile host="app.diagrams.net" modified="2022-11-29T01:41:09.677Z" agent="5.0 (Windows NT 10.0; Win64; x64) AppleWebKit/537.36 (KHTML, like Gecko) Chrome/107.0.0.0 Safari/537.36" etag="1o_izPKF1lRhuR5z9vUw" version="20.6.0" type="github">
  <diagram id="twuGdJCTQ_6P8qHDItHi" name="第 1 页">
    <mxGraphModel dx="981" dy="532" grid="1" gridSize="10" guides="1" tooltips="1" connect="1" arrows="1" fold="1" page="1" pageScale="1" pageWidth="827" pageHeight="1169" math="0" shadow="0">
      <root>
        <mxCell id="0" />
        <mxCell id="1" parent="0" />
        <mxCell id="ZHqOfAQmq1Rvv8ET6G5I-1" value="App-Client" style="rounded=1;whiteSpace=wrap;html=1;" parent="1" vertex="1">
          <mxGeometry x="40" y="160" width="220" height="40" as="geometry" />
        </mxCell>
        <mxCell id="Kb-b3FLpqGYLByjb4WWT-2" value="&amp;nbsp;Shopify" style="rounded=1;whiteSpace=wrap;html=1;" vertex="1" parent="1">
          <mxGeometry x="320" y="160" width="220" height="40" as="geometry" />
        </mxCell>
        <mxCell id="Kb-b3FLpqGYLByjb4WWT-3" value="App-Backend" style="rounded=1;whiteSpace=wrap;html=1;" vertex="1" parent="1">
          <mxGeometry x="610" y="160" width="220" height="40" as="geometry" />
        </mxCell>
      </root>
    </mxGraphModel>
  </diagram>
</mxfile>
